<svg width="32" height="21" viewBox="0 0 32 21" fill="none" xmlns="http://www.w3.org/2000/svg">
<path d="M31.9499 2.31595C32.222 3.0512 31.3863 4.76679 29.4429 7.46273C29.1708 7.83035 28.821 8.32052 28.3934 8.93323C27.4994 10.077 26.9942 10.8326 26.8775 11.2003C26.6832 11.6904 26.7609 12.1602 27.1108 12.6095C27.3051 12.8546 27.7521 13.3448 28.4517 14.08H28.51V14.1413C30.1036 15.6526 31.1725 16.9393 31.7167 18.0014L31.8333 18.2465L31.9499 18.706V19.2881L31.5418 19.7476L30.5506 19.962L26.2945 20.0846C26.0224 20.1254 25.7018 20.0846 25.3325 19.962C24.9633 19.8395 24.6815 19.717 24.4871 19.5944L24.1373 19.3493C23.7875 19.1042 23.3988 18.7366 22.9713 18.2465C22.5437 17.7563 22.1647 17.307 21.8344 16.8985C21.504 16.49 21.1639 16.153 20.8141 15.8875C20.4642 15.622 20.1533 15.5301 19.8812 15.6118C19.8424 15.6118 19.7938 15.6322 19.7355 15.6731C19.6772 15.7139 19.58 15.8058 19.444 15.9488C19.3079 16.0917 19.1913 16.2653 19.0941 16.4696C18.997 16.6738 18.9095 16.97 18.8318 17.358C18.754 17.7461 18.7152 18.2056 18.7152 18.7366C18.7152 18.9 18.6957 19.0532 18.6569 19.1962C18.618 19.3391 18.5791 19.4515 18.5403 19.5331L18.482 19.5944C18.2487 19.8395 17.9378 19.962 17.5491 19.962H15.6834C14.8672 20.0437 14.0412 19.962 13.2056 19.717C12.3699 19.4719 11.6411 19.1553 11.0192 18.7673C10.3973 18.3792 9.83372 17.9912 9.32843 17.6031C8.82314 17.2151 8.43446 16.8781 8.16238 16.5921L7.75426 16.1632C7.63765 16.0815 7.48218 15.9181 7.28784 15.6731C7.0935 15.428 6.69509 14.897 6.09263 14.08C5.49017 13.2631 4.89743 12.3848 4.3144 11.4454C3.73137 10.5059 3.05117 9.27022 2.27381 7.73845C1.49644 6.20667 0.777369 4.62383 0.116605 2.98993C0.0388685 2.78569 0 2.6223 0 2.49976C0 2.37722 0.0194342 2.2751 0.0583027 2.1934L0.116605 2.13213C0.272079 1.88705 0.583027 1.76451 1.04945 1.76451H5.65536C5.77197 1.76451 5.88857 1.79514 6.00518 1.85641L6.29669 2.00959L6.35499 2.07086C6.54934 2.1934 6.68538 2.37722 6.76311 2.6223C6.99632 3.19417 7.25869 3.79667 7.5502 4.4298C7.84171 5.06294 8.06521 5.5429 8.22068 5.86967L8.45389 6.35984C8.80371 7.05425 9.12437 7.65675 9.41589 8.16734C9.7074 8.67794 9.96976 9.0762 10.203 9.36213C10.4362 9.64806 10.6694 9.87272 10.9026 10.0361C11.1358 10.1995 11.3302 10.2812 11.4856 10.2812C11.6411 10.2812 11.7966 10.2608 11.9521 10.2199L12.0104 10.128L12.2144 9.72976L12.4476 8.93323L12.5934 7.524V5.31823C12.5545 4.86891 12.4962 4.45023 12.4185 4.06218C12.3407 3.67412 12.263 3.3984 12.1853 3.23501L12.127 3.0512C11.8549 2.64273 11.369 2.37722 10.6694 2.25468C10.5528 2.25468 10.5917 2.11171 10.786 1.82578C10.9803 1.62154 11.1941 1.45815 11.4273 1.33561C12.0104 1.00883 13.3319 0.865863 15.3919 0.90671C16.2859 0.90671 17.0438 0.988405 17.6657 1.15179C17.8601 1.19264 18.035 1.26413 18.1904 1.36624C18.3459 1.46836 18.4625 1.61133 18.5403 1.79514C18.618 1.97896 18.6763 2.16277 18.7152 2.34658C18.754 2.5304 18.7735 2.7959 18.7735 3.14311V4.09281C18.7346 4.41959 18.7152 4.82806 18.7152 5.31823V6.78874C18.7152 6.91128 18.7055 7.15637 18.686 7.524C18.6666 7.89162 18.6569 8.17756 18.6569 8.38179C18.6569 8.58603 18.6763 8.8209 18.7152 9.08641C18.754 9.35192 18.8221 9.57658 18.9192 9.76039C19.0164 9.94421 19.1427 10.077 19.2982 10.1587C19.3759 10.1995 19.4634 10.2301 19.5606 10.2506C19.6577 10.271 19.8035 10.2097 19.9978 10.0667C20.1922 9.92378 20.4059 9.71955 20.6392 9.45404C20.8724 9.18853 21.1639 8.79027 21.5137 8.25925C21.8635 7.72823 22.2328 7.11552 22.6214 6.42112C23.2822 5.19569 23.8847 3.86815 24.4288 2.43849C24.4677 2.35679 24.5163 2.26489 24.5746 2.16277C24.6329 2.06065 24.7009 1.98917 24.7786 1.94832H24.837L24.8953 1.88705L25.1285 1.82578H25.4783L30.2591 1.76451C30.6867 1.72366 31.0462 1.74408 31.3377 1.82578C31.6292 1.90747 31.7944 2.00959 31.8333 2.13213L31.9499 2.31595Z" fill="white"/>
</svg>
