<svg width="15" height="19" viewBox="0 0 15 19" fill="none" xmlns="http://www.w3.org/2000/svg">
<path d="M2.888 11.3079V13.0439H1H0.8V13.2439V14.8039V15.0039H1H2.888V18.0679V18.2679L10.84 10.4839M2.888 11.3079H1H0.8V11.1079V9.28389V9.08389H1H2.888M2.888 11.3079V11.1079H3.088L2.888 11.3079ZM2.888 9.08389V0.931885V0.731885H3.088H7.6C9.7165 0.731885 11.3241 1.15893 12.3842 2.05034C13.4635 2.94449 13.992 4.23874 13.992 5.89988C13.992 7.01909 13.7365 7.99363 13.217 8.81481L13.216 8.8164C12.6951 9.62293 11.9253 10.2386 10.9189 10.6677M2.888 9.08389H3.088V9.28389M2.888 9.08389L3.088 9.28389M10.9189 10.6677C10.9187 10.6677 10.9186 10.6678 10.9184 10.6679L10.84 10.4839M10.9189 10.6677C10.9191 10.6676 10.9193 10.6675 10.9195 10.6674L10.84 10.4839M10.9189 10.6677C9.92659 11.0975 8.70576 11.3079 7.264 11.3079H6.696V11.1079H7.264C8.688 11.1079 9.88 10.8999 10.84 10.4839M3.088 9.28389H2.888M5.448 2.75589H5.248V2.95589H5.448V2.75589ZM6.696 9.28389V9.08389H6.496H5.448V9.28389H6.296H6.496H6.696Z" fill="white" stroke="white" stroke-width="0.4"/>
</svg>
